<?xml version="1.0" encoding="UTF-8"?>
<!DOCTYPE svg PUBLIC "-//W3C//DTD SVG 1.1//EN" "http://www.w3.org/Graphics/SVG/1.1/DTD/svg11.dtd">
<svg xmlns="http://www.w3.org/2000/svg" version="1.1" width="532px" height="926px" style="shape-rendering:geometricPrecision; text-rendering:geometricPrecision; image-rendering:optimizeQuality; fill-rule:evenodd; clip-rule:evenodd" xmlns:xlink="http://www.w3.org/1999/xlink">
<g><path style="opacity:0.267" fill="#0052ff" d="M -0.5,-0.5 C 176.833,-0.5 354.167,-0.5 531.5,-0.5C 531.5,28.8333 531.5,58.1667 531.5,87.5C 383.166,87.3333 234.833,87.5 86.5,88C 87.165,153.099 87.8316,218.266 88.5,283.5C 147.837,247.829 207.504,212.663 267.5,178C 224.829,177.833 182.163,177.333 139.5,176.5C 171.637,154.862 203.637,133.029 235.5,111C 331.168,110.167 426.835,110.333 522.5,111.5C 348.285,213.772 173.952,315.772 -0.5,417.5C -0.5,278.167 -0.5,138.833 -0.5,-0.5 Z"/></g>
<g><path style="opacity:0.267" fill="#0052ff" d="M 531.5,137.5 C 531.5,218.5 531.5,299.5 531.5,380.5C 391.784,462.69 251.784,544.356 111.5,625.5C 111.333,593.832 111.5,562.165 112,530.5C 219.418,466.874 326.918,403.374 434.5,340C 435.66,319.24 435.826,298.406 435,277.5C 318.586,345.955 202.419,414.789 86.5,484C 87.6645,550.43 87.8311,616.93 87,683.5C 57.9458,700.727 28.7791,717.727 -0.5,734.5C -0.5,638.833 -0.5,543.167 -0.5,447.5C 177.161,344.671 354.495,241.338 531.5,137.5 Z"/></g>
<g><path style="opacity:0.267" fill="#0052ff" d="M 531.5,447.5 C 531.5,500.833 531.5,554.167 531.5,607.5C 499.227,625.639 467.227,644.305 435.5,663.5C 435.643,638.343 435.476,613.01 435,587.5C 334.418,646.874 233.918,706.374 133.5,766C 176.14,787.404 218.64,808.571 261,829.5C 318.724,800.888 376.557,772.055 434.5,743C 435.326,725.574 435.826,708.074 436,690.5C 467.779,671.696 499.612,653.029 531.5,634.5C 531.5,681.833 531.5,729.167 531.5,776.5C 441.836,825.663 352.503,875.33 263.5,925.5C 261.833,925.5 260.167,925.5 258.5,925.5C 172.658,876.743 86.3247,828.743 -0.5,781.5C -0.5,773.167 -0.5,764.833 -0.5,756.5C 176.861,653.488 354.194,550.488 531.5,447.5 Z"/></g>
</svg>
